<?xml version="1.0" ?><!DOCTYPE svg  PUBLIC '-//W3C//DTD SVG 1.1//EN'  'http://www.w3.org/Graphics/SVG/1.1/DTD/svg11.dtd'><svg enable-background="new 0 0 32 32" height="32px" overflow="visible" version="1.1" viewBox="0 0 32 32" width="32px" xml:space="preserve" xmlns="http://www.w3.org/2000/svg" xmlns:xlink="http://www.w3.org/1999/xlink"><defs/><path clip-rule="evenodd" d="M18.301,14.066v-0.045c-0.01,0.016-0.021,0.031-0.03,0.045H18.301z" fill-rule="evenodd"/><path clip-rule="evenodd" d="M30,0h-1.048H3.048H2C0.896,0,0,0.895,0,2v1.047v25.906V30c0,1.105,0.896,2,2,2  h1.048h25.904H30c1.104,0,2-0.895,2-2v-1.047V3.047V2C32,0.895,31.104,0,30,0z M27.417,25.938h-4.509v-7.191  c0-1.805-0.513-3.039-2.144-3.039c-1.247,0-1.991,0.832-2.315,1.635c-0.119,0.287-0.148,0.688-0.148,1.09v7.506h-4.655  c0,0,0.06-12.559,0-13.82h4.655v1.904c0.598-0.914,1.668-2.221,4.065-2.221c2.967,0,5.051,2.305,5.051,6.432V25.938z M8.148,6.098  c1.385,0,2.238,1,2.266,2.312c0,1.283-0.881,2.312-2.292,2.312H8.096c-1.36,0-2.238-1.029-2.238-2.312  C5.857,7.098,6.762,6.098,8.148,6.098z M10.67,12.17v13.768H6.096V12.17H10.67z" fill-rule="evenodd" fill="#fff"/></svg>